<?xml version="1.0" encoding="UTF-8" standalone="no" ?>
<!DOCTYPE svg PUBLIC "-//W3C//DTD SVG 1.1//EN" "http://www.w3.org/Graphics/SVG/1.1/DTD/svg11.dtd">
<svg xmlns="http://www.w3.org/2000/svg" xmlns:xlink="http://www.w3.org/1999/xlink" version="1.1" width="2000" height="368" viewBox="0 0 2000 368" xml:space="preserve">
<desc>Created with Fabric.js 5.2.4</desc>
<defs>
</defs>
<g transform="matrix(1 0 0 1 1000 184)" id="a4800b41-79f3-4532-a0be-7f597dd5aee8"  >
<rect style="stroke: none; stroke-width: 1; stroke-dasharray: none; stroke-linecap: butt; stroke-dashoffset: 0; stroke-linejoin: miter; stroke-miterlimit: 4; fill: rgb(255,255,255); fill-rule: nonzero; opacity: 1; visibility: hidden;" vector-effect="non-scaling-stroke"  x="-1000" y="-184" rx="0" ry="0" width="2000" height="368" />
</g>
<g transform="matrix(Infinity NaN NaN Infinity 0 0)" id="a821e7e4-c7ae-400e-a58c-2f22791f8038"  >
</g>
<g transform="matrix(2.34 0 0 2.34 1000 184)"  >
<g style="" vector-effect="non-scaling-stroke"   >
		<g transform="matrix(1 0 0 1 -358.23 1.36)" id="path2"  >
<path style="stroke: none; stroke-width: 1; stroke-dasharray: none; stroke-linecap: butt; stroke-dashoffset: 0; stroke-linejoin: miter; stroke-miterlimit: 4; fill: rgb(0,0,0); fill-rule: nonzero; opacity: 1;" vector-effect="non-scaling-stroke"  transform=" translate(-244.26, -678.95)" d="M 292.104156 734.648438 C 286.336273 741.21698 278.745453 743.946411 271.105591 746.37854 C 254.975143 751.513611 238.435089 753.434265 222.070938 748.410034 C 201.961807 742.236023 189.710175 727.838196 184.084 707.862183 C 180.510895 695.175659 180.946671 682.163635 183.376434 669.367371 C 186.603119 652.374084 194.551346 637.860413 207.405884 625.987183 C 217.292389 616.855347 228.752365 610.636719 241.748322 608.272339 C 258.325104 605.25647 275.004303 605.599792 290.256165 614.14325 C 296.017761 617.370605 301.054382 621.892273 307.044159 626.28009 C 302.203522 632.247864 298.487 638.0849 293.54187 642.566101 C 288.792816 646.869629 283.341248 644.298828 278.62149 641.10791 C 268.352692 634.165588 257.095917 631.919678 245.261353 635.41394 C 232.813644 639.089355 225.013 648.380676 220.147888 659.883484 C 216.273254 669.044556 214.417572 678.947876 215.125565 688.900513 C 216.013031 701.375977 218.659775 713.495667 230.403839 720.812866 C 240.62207 727.17926 251.532654 726.290039 262.146698 722.069824 C 263.810822 721.408142 264.475708 717.312988 264.913849 714.690369 C 265.693054 710.026001 265.945435 705.273682 266.474152 699.999695 C 262.590851 699.999695 258.562439 700.093628 254.540619 699.971252 C 251.036911 699.864624 248.517242 696.750671 249.009949 693.379028 C 249.830292 687.765198 250.668564 682.153992 251.542221 676.251648 C 266.986755 676.251648 282.733063 676.251648 299.156219 676.251648 C 298.737335 681.645691 298.506927 686.993896 297.87027 692.293274 C 296.707031 701.976135 295.307617 711.630676 293.998077 721.295959 C 293.412689 725.616394 292.806396 729.93396 292.104156 734.648438 z" stroke-linecap="round" />
</g>
		<g transform="matrix(1 0 0 1 290.66 21.97)" id="path3"  >
<path style="stroke: none; stroke-width: 1; stroke-dasharray: none; stroke-linecap: butt; stroke-dashoffset: 0; stroke-linejoin: miter; stroke-miterlimit: 4; fill: rgb(0,0,0); fill-rule: nonzero; opacity: 1;" vector-effect="non-scaling-stroke"  transform=" translate(-893.15, -699.56)" d="M 845.181641 730.464233 C 842.669678 702.446106 850.686584 675.746582 851.800171 648.237549 C 862.310608 648.237549 872.395874 648.237549 883.156372 648.237549 C 882.765503 653.317871 882.558167 658.335144 881.953796 663.304077 C 881.130981 670.068848 879.764771 676.771912 879.062683 683.546082 C 877.865173 695.100281 876.793518 706.676331 876.079285 718.268433 C 875.657654 725.111877 880.629944 728.112488 886.617798 724.698303 C 896.614197 718.99823 902.362 710.107056 903.942078 698.807678 C 906.171997 682.86145 907.94812 666.851929 910.1203 650.897034 C 910.267761 649.813904 912.08667 648.154114 913.16156 648.12793 C 922.282654 647.906006 931.411499 648.00116 941.611572 648.00116 C 937.571167 681.712891 933.582764 714.990723 929.507874 748.990173 C 923.037659 748.990173 916.056885 749.56842 909.224854 748.80896 C 903.66272 748.190674 902.423462 743.053345 901.718323 737.012573 C 898.376343 739.511169 895.746887 741.709778 892.895447 743.567749 C 881.752747 750.82843 870.044128 754.147522 857.340271 747.704529 C 850.485596 744.228027 847.499512 737.793884 845.181641 730.464233 z" stroke-linecap="round" />
</g>
		<g transform="matrix(1 0 0 1 -244.81 21.96)" id="path4"  >
<path style="stroke: none; stroke-width: 1; stroke-dasharray: none; stroke-linecap: butt; stroke-dashoffset: 0; stroke-linejoin: miter; stroke-miterlimit: 4; fill: rgb(0,0,0); fill-rule: nonzero; opacity: 1;" vector-effect="non-scaling-stroke"  transform=" translate(-357.69, -699.55)" d="M 344.271484 678.392639 C 342.709991 690.116577 341.328217 701.437561 340.094574 712.774719 C 339.808014 715.408447 339.718079 718.139832 340.080475 720.750977 C 340.702942 725.235474 344.8284 726.977112 349.36618 725.175476 C 359.861298 721.008789 365.323029 712.275757 367.73877 702.248718 C 370.235474 691.885681 370.644196 681.022156 372.007477 670.382812 C 372.952942 663.004333 373.96814 655.634766 374.960785 648.196777 C 385.458954 648.196777 395.559052 648.196777 406.209015 648.196777 C 402.099579 681.835632 398.021759 715.21582 393.894653 748.999512 C 387.288391 748.999512 380.825958 749.115479 374.370209 748.956848 C 370.371216 748.858582 367.217041 745.460388 367.014954 741.428467 C 366.927155 739.676453 367.000244 737.916382 367.000244 735.573914 C 362.0513 739.392517 358.011322 743.191895 353.357056 745.957581 C 343.941742 751.552368 330.1521 753.96698 319.586487 746.145935 C 312.498566 740.899353 308.947998 733.432556 309.171814 724.950256 C 309.473358 713.52179 310.932648 702.120117 311.997955 690.716553 C 312.924438 680.799561 313.991516 670.89563 315.001434 660.98645 C 315.332428 657.738708 315.342041 654.402161 316.176453 651.287903 C 316.534119 649.953064 318.590546 648.193481 319.929352 648.14563 C 328.080872 647.854431 336.248047 648.012268 344.409912 647.994324 C 347.456329 647.987671 348.102417 648.785767 347.501282 652.223633 C 346.014069 660.728821 345.443848 669.39447 344.271484 678.392639 z" stroke-linecap="round" />
</g>
		<g transform="matrix(1 0 0 1 185.13 21.42)" id="path5"  >
<path style="stroke: none; stroke-width: 1; stroke-dasharray: none; stroke-linecap: butt; stroke-dashoffset: 0; stroke-linejoin: miter; stroke-miterlimit: 4; fill: rgb(0,0,0); fill-rule: nonzero; opacity: 1;" vector-effect="non-scaling-stroke"  transform=" translate(-787.62, -699.01)" d="M 803.852295 647.998474 C 814.804443 650.434265 823.191345 655.802002 828.809082 665.271973 C 834.635071 675.092896 836.265381 686.049438 834.639587 696.774658 C 833.200989 706.265076 830.112305 716.003418 825.501831 724.396118 C 818.887329 736.436768 808.266418 744.995605 794.742737 748.930969 C 779.516663 753.361633 765.0802 751.372498 752.760803 741.032532 C 745.910278 735.282776 742.606506 726.930725 741.074036 718.226807 C 738.430847 703.215027 740.640686 688.68042 748.270935 675.526184 C 759.703186 655.817688 776.827637 645.42218 800.20813 647.036743 C 801.29364 647.111694 802.346069 647.664978 803.852295 647.998474 M 801.627502 706.896179 C 802.085327 698.851807 802.614136 690.810547 802.975891 682.761902 C 803.214539 677.449158 800.850586 673.214111 796.05365 671.175964 C 791.199524 669.113464 783.169861 672.295471 780.022827 676.928894 C 771.650391 689.255554 770.156921 703.110107 772.280518 717.300903 C 773.673828 726.611877 783.760071 730.517395 790.395569 725.047546 C 795.967651 720.454285 799.796631 714.76001 801.627502 706.896179 z" stroke-linecap="round" />
</g>
		<g transform="matrix(1 0 0 1 -153.96 7.45)" id="path6"  >
<path style="stroke: none; stroke-width: 1; stroke-dasharray: none; stroke-linecap: butt; stroke-dashoffset: 0; stroke-linejoin: miter; stroke-miterlimit: 4; fill: rgb(0,0,0); fill-rule: nonzero; opacity: 1;" vector-effect="non-scaling-stroke"  transform=" translate(-448.53, -685.04)" d="M 479.963226 668.905029 C 472.378601 669.374207 464.825562 669.374207 457.608521 669.374207 C 455.641541 683.844788 453.810089 697.20813 452.019135 710.576843 C 451.608826 713.639404 451.303009 716.717285 451.010498 719.793945 C 450.539795 724.744568 454.415649 727.905151 458.83371 725.472656 C 463.997498 722.6297 466.244995 724.563538 468.04306 729.138062 C 468.864258 731.227234 470.066895 733.163147 471.002197 735.21167 C 471.92981 737.243469 472.738922 739.329346 474.114563 742.623901 C 468.960632 744.794739 463.730011 747.44928 458.214661 749.21405 C 450.161804 751.790649 442.067261 751.958557 433.95047 748.576904 C 424.575134 744.670898 420.389679 737.135498 420.225464 727.862305 C 420.076477 719.449158 421.8172 711.000427 422.756683 702.570923 C 423.478821 696.091309 424.251892 689.61731 424.999451 683.140503 C 425.485779 678.927063 425.96698 674.713074 426.507843 669.999268 C 423.93045 669.999268 421.125702 670.385437 418.515686 669.839966 C 417.165741 669.557861 415.258636 667.693481 415.15979 666.422791 C 414.771057 661.426697 415.000549 656.382446 415.000549 651.557434 C 420.656219 650.539612 424.975525 649.919312 429.196655 648.894653 C 430.280273 648.631653 431.488495 647.249695 431.89801 646.11438 C 434.070557 640.091187 436.347412 634.069641 437.926849 627.878784 C 439.433868 621.971863 443.052887 619.274719 448.774628 619.042297 C 453.390778 618.854919 458.020599 619.004395 463.452332 619.004395 C 462.261627 629.147339 461.127411 638.809143 459.949097 648.84668 C 467.204193 648.84668 474.309814 648.84668 482.124695 648.84668 C 481.384033 655.658752 480.689453 662.047241 479.963226 668.905029 z" stroke-linecap="round" />
</g>
		<g transform="matrix(1 0 0 1 379.46 21.28)" id="path7"  >
<path style="stroke: none; stroke-width: 1; stroke-dasharray: none; stroke-linecap: butt; stroke-dashoffset: 0; stroke-linejoin: miter; stroke-miterlimit: 4; fill: rgb(0,0,0); fill-rule: nonzero; opacity: 1;" vector-effect="non-scaling-stroke"  transform=" translate(-981.95, -698.87)" d="M 953.012207 674.326721 C 956.639709 662.853149 963.654419 655.078247 974.335938 650.15448 C 988.321411 643.707642 1012.899414 647.355591 1023.13739 658.104553 C 1023.676453 658.670593 1023.586182 660.483093 1023.088989 661.2771 C 1020.950928 664.691589 1018.692383 668.052673 1016.209595 671.223389 C 1013.370239 674.849304 1008.772217 675.161133 1002.455994 671.70575 C 997.454102 668.969482 992.235046 667.500916 986.926086 669.206726 C 984.266479 670.061279 981.297791 672.664124 980.273254 675.204102 C 979.023315 678.302856 980.848083 681.412476 984.348083 683.063843 C 991.874512 686.614929 999.527405 689.972412 1006.744751 694.082825 C 1013.879578 698.146301 1017.683411 707.809509 1016.141724 715.633545 C 1011.725769 738.044434 1003.901306 745.719666 981.079407 750.027588 C 966.687744 752.744263 950.213379 747.995789 940.404419 737.735413 C 944.441467 732.924988 948.233948 727.644653 952.841736 723.21167 C 955.451416 720.700867 959.187866 721.592712 962.302246 723.784668 C 967.467224 727.419922 972.999573 729.975586 979.590149 729.007324 C 983.702026 728.403198 987.038147 726.56311 987.914185 722.317566 C 988.877014 717.651306 986.579712 714.630188 982.111145 712.943054 C 977.174988 711.079407 972.334778 708.952576 967.496765 706.839478 C 952.396667 700.24408 950.063782 689.327393 953.012207 674.326721 z" stroke-linecap="round" />
</g>
		<g transform="matrix(1 0 0 1 43.93 21.87)" id="path8"  >
<path style="stroke: none; stroke-width: 1; stroke-dasharray: none; stroke-linecap: butt; stroke-dashoffset: 0; stroke-linejoin: miter; stroke-miterlimit: 4; fill: rgb(0,0,0); fill-rule: nonzero; opacity: 1;" vector-effect="non-scaling-stroke"  transform=" translate(-646.42, -699.46)" d="M 612.251038 736.74939 C 607.12262 730.747253 604.888 723.723083 604.147827 716.599182 C 602.115479 697.039734 606.600708 678.909668 619.779297 663.992554 C 627.346008 655.427612 637.015259 649.079895 648.917419 648.119324 C 655.824158 647.561829 662.957031 647.42157 669.755615 648.525391 C 677.892822 649.846741 683.878845 655.411377 689.152832 662.00238 C 685.856506 665.742737 682.609192 669.622437 679.1474 673.300171 C 675.759155 676.899719 671.321838 677.298584 667.5672 674.714783 C 655.953796 666.7229 645.35553 674.536316 641.015076 682.914917 C 635.640808 693.289307 633.198669 704.203796 636.048035 715.753113 C 638.877991 727.223816 648.001404 729.031128 656.765259 725.615234 C 659.384277 724.594421 661.483521 722.278381 663.882935 720.646973 C 667.342529 718.294739 670.826721 718.233032 674.242065 720.794067 C 674.506775 720.992554 674.739502 721.233826 674.986145 721.456238 C 685.256165 730.720642 684.858154 734.003357 671.327332 742.885437 C 656.943054 752.327759 641.261536 753.607239 625.465637 747.497681 C 620.534241 745.590332 616.796997 740.595459 612.251038 736.74939 z" stroke-linecap="round" />
</g>
		<g transform="matrix(1 0 0 1 -82.3 20.76)" id="path9"  >
<path style="stroke: none; stroke-width: 1; stroke-dasharray: none; stroke-linecap: butt; stroke-dashoffset: 0; stroke-linejoin: miter; stroke-miterlimit: 4; fill: rgb(0,0,0); fill-rule: nonzero; opacity: 1;" vector-effect="non-scaling-stroke"  transform=" translate(-520.19, -698.35)" d="M 551.504333 648.00885 C 553.425781 648.565552 554.911743 649.114502 556.697754 649.774353 C 554.81488 659.621033 552.96405 669.300354 551.042297 679.350525 C 542.628357 675.585938 534.802002 675.297791 529.309692 682.530579 C 525.625 687.382935 522.503723 693.321899 521.252014 699.224548 C 518.734192 711.097717 517.682129 723.280457 515.991699 735.33075 C 515.36499 739.79834 514.644104 744.252625 513.952393 748.803833 C 503.906036 748.803833 494.145081 748.803833 483.689056 748.803833 C 484.577484 740.14447 485.355927 731.732239 486.328247 723.342468 C 487.095062 716.725952 488.122253 710.139832 488.994934 703.535095 C 490.336884 693.378784 491.729858 683.227966 492.939178 673.055603 C 493.768555 666.079041 494.499725 659.080322 494.915955 652.07019 C 495.090485 649.130798 495.866638 647.728455 498.970581 647.978455 C 504.026367 648.385803 509.16275 648.243225 514.138306 649.083557 C 520.649597 650.183289 521.985901 652.20166 521.999329 658.612 C 522.003662 660.689209 522 662.766418 522.481323 665.114136 C 529.865601 655.456299 537.582031 646.838928 551.504333 648.00885 z" stroke-linecap="round" />
</g>
		<g transform="matrix(1 0 0 1 -27.12 20.78)" id="path10"  >
<path style="stroke: none; stroke-width: 1; stroke-dasharray: none; stroke-linecap: butt; stroke-dashoffset: 0; stroke-linejoin: miter; stroke-miterlimit: 4; fill: rgb(0,0,0); fill-rule: nonzero; opacity: 1;" vector-effect="non-scaling-stroke"  transform=" translate(-575.37, -698.37)" d="M 557.742737 719.58136 C 559.296875 707.856445 560.637756 696.537109 561.957825 685.215332 C 562.656311 679.224548 563.331177 673.230957 563.994019 667.236084 C 564.689636 660.945557 565.358154 654.652039 566.077332 648.000793 C 575.433105 648.000793 584.557983 647.983459 593.682617 648.011353 C 596.427979 648.019775 597.158081 648.972351 596.587585 652.033569 C 595.337097 658.744324 594.838501 665.593872 593.995239 672.38208 C 592.692078 682.872681 591.2995 693.352539 590.053589 703.849854 C 588.958191 713.079224 588.041321 722.329651 586.989136 731.564331 C 586.345032 737.217957 585.594666 742.859497 584.861572 748.750732 C 574.759277 748.750732 564.66333 748.750732 553.981201 748.750732 C 555.163635 739.141602 556.342224 729.563782 557.742737 719.58136 z" stroke-linecap="round" />
</g>
		<g transform="matrix(1 0 0 1 109.74 20.8)" id="path11"  >
<path style="stroke: none; stroke-width: 1; stroke-dasharray: none; stroke-linecap: butt; stroke-dashoffset: 0; stroke-linejoin: miter; stroke-miterlimit: 4; fill: rgb(0,0,0); fill-rule: nonzero; opacity: 1;" vector-effect="non-scaling-stroke"  transform=" translate(-712.23, -698.39)" d="M 722.971802 648 C 726.44574 648 729.425171 648 733.681641 648 C 729.694946 681.744019 725.748108 715.150635 721.775635 748.773804 C 711.628906 748.773804 701.542725 748.773804 690.777283 748.773804 C 694.787354 715.216125 698.777954 681.821533 702.81958 648 C 709.553955 648 716.015564 648 722.971802 648 z" stroke-linecap="round" />
</g>
		<g transform="matrix(1 0 0 1 -18.2 -55.69)" id="path12"  >
<path style="stroke: none; stroke-width: 1; stroke-dasharray: none; stroke-linecap: butt; stroke-dashoffset: 0; stroke-linejoin: miter; stroke-miterlimit: 4; fill: rgb(0,0,0); fill-rule: nonzero; opacity: 1;" vector-effect="non-scaling-stroke"  transform=" translate(-584.29, -621.9)" d="M 568.187073 613.467407 C 572.6073 605.80011 579.145935 602.938843 587.270752 604.075195 C 594.533997 605.091003 599.215454 610.073914 601.697998 616.446777 C 605.046936 625.043701 598.874573 635.879578 589.632385 638.994141 C 580.351685 642.121704 570.485046 637.464478 567.123291 628.327515 C 565.302124 623.377808 565.586853 618.525879 568.187073 613.467407 z" stroke-linecap="round" />
</g>
		<g transform="matrix(1 0 0 1 118.79 -55.68)" id="path13"  >
<path style="stroke: none; stroke-width: 1; stroke-dasharray: none; stroke-linecap: butt; stroke-dashoffset: 0; stroke-linejoin: miter; stroke-miterlimit: 4; fill: rgb(0,0,0); fill-rule: nonzero; opacity: 1;" vector-effect="non-scaling-stroke"  transform=" translate(-721.28, -621.91)" d="M 705.587524 611.922974 C 711.45929 604.731506 718.387878 602.184875 727.088013 604.954712 C 733.827759 607.100464 737.56897 612.17395 738.823059 618.541016 C 740.139465 625.224548 737.692505 630.828064 732.138428 635.574585 C 720.832153 645.236938 705.749207 637.384583 703.626648 626.8302 C 702.703918 622.241699 704.651367 617.07605 705.587524 611.922974 z" stroke-linecap="round" />
</g>
</g>
</g>
</svg>