<?xml version="1.0" encoding="UTF-8"?>
<svg version="1.1" xmlns="http://www.w3.org/2000/svg" width="303" height="66">
<path d="M0 0 C3.95753624 2.36433691 5.23909267 3.74771658 7.375 8.01953125 C5.065 10.32953125 2.755 12.63953125 0.375 15.01953125 C-0.45 14.19453125 -1.275 13.36953125 -2.125 12.51953125 C-4.63596743 10.44189862 -6.41986464 9.58054465 -9.6875 9.39453125 C-13.65467332 9.75235131 -13.65467332 9.75235131 -16.625 11.95703125 C-19.31587222 16.07742934 -19.54507864 19.22817831 -18.625 24.01953125 C-17.25557551 27.12800698 -17.25557551 27.12800698 -14.625 29.01953125 C-9.96228439 30.29118096 -6.91162345 30.28892014 -2.625 28.01953125 C-2.295 27.68953125 -1.965 27.35953125 -1.625 27.01953125 C-4.265 26.68953125 -6.905 26.35953125 -9.625 26.01953125 C-9.625 23.04953125 -9.625 20.07953125 -9.625 17.01953125 C-3.355 17.01953125 2.915 17.01953125 9.375 17.01953125 C9.98858656 30.15028362 9.98858656 30.15028362 7.125 34.20703125 C6.2175 34.80515625 5.31 35.40328125 4.375 36.01953125 C3.323125 36.88578125 3.323125 36.88578125 2.25 37.76953125 C-3.19799519 41.40152804 -10.37598552 40.6291912 -16.625 40.01953125 C-22.36428478 37.95836396 -26.13669369 33.88201883 -29.625 29.01953125 C-31.54061899 23.27267427 -31.84146949 16.23989445 -29.68359375 10.52734375 C-23.27578309 -0.11886204 -11.94494863 -4.46158051 0 0 Z " fill="#000000" transform="translate(38.625,16.98046875)"/>
<path d="M0 0 C4.51560214 4.07505559 7.17867569 6.92191976 7.65625 13.26171875 C7.46455797 17.45498182 6.01808658 20.81432977 3.09375 23.82421875 C-1.95046387 28.13899973 -5.13032078 28.66164146 -11.60546875 28.59375 C-16.75829554 28.08202099 -19.96534403 26.07908717 -23.3125 22.0625 C-25.46691124 16.79616142 -25.95115189 12.99613676 -24.3125 7.625 C-19.0347076 -1.6990999 -9.81363358 -4.81760194 0 0 Z M-13.375 10 C-14.74566224 12.32652222 -14.74566224 12.32652222 -13.6875 15 C-12.6352169 17.21005147 -12.6352169 17.21005147 -11.4375 18.3125 C-9.02212162 18.72967279 -9.02212162 18.72967279 -6.4375 18.3125 C-4.3589392 16.73554368 -4.3589392 16.73554368 -3.4375 14.3125 C-4.10521183 11.91986593 -4.65847385 10.09152615 -6.4375 8.3125 C-9.62299797 7.89335553 -10.90874882 7.85197478 -13.375 10 Z " fill="#000000" transform="translate(224.4375,28.6875)"/>
<path d="M0 0 C3.3 0 6.6 0 10 0 C10.06058594 1.13179687 10.12117187 2.26359375 10.18359375 3.4296875 C10.26799917 4.91147145 10.35264717 6.3932416 10.4375 7.875 C10.47681641 8.62136719 10.51613281 9.36773437 10.55664062 10.13671875 C10.71573624 14.19986864 10.71573624 14.19986864 12 18 C13.65 18 15.3 18 17 18 C18.585869 14.828262 18.37866445 11.36486178 18.5625 7.875 C18.60568359 7.12089844 18.64886719 6.36679687 18.69335938 5.58984375 C18.7994832 3.72678112 18.90025001 1.86341476 19 0 C22.3 0 25.6 0 29 0 C29.08111739 3.2296738 29.14055592 6.45730014 29.1875 9.6875 C29.21263672 10.59951172 29.23777344 11.51152344 29.26367188 12.45117188 C29.33085851 18.60994658 28.57858494 21.99165091 24.5 26.75 C20.32818172 30.22651523 14.09688701 29.42598616 9 29 C5.71363596 27.56221573 3.29758238 25.75709885 1 23 C0.03911617 20.11734851 -0.11670941 18.32337729 -0.09765625 15.33203125 C-0.09443359 14.43935547 -0.09121094 13.54667969 -0.08789062 12.62695312 C-0.07951172 11.69818359 -0.07113281 10.76941406 -0.0625 9.8125 C-0.05798828 8.87212891 -0.05347656 7.93175781 -0.04882812 6.96289062 C-0.03704645 4.64189992 -0.01911114 2.32094193 0 0 Z " fill="#000000" transform="translate(237,28)"/>
<path d="M0 0 C3.3 0 6.6 0 10 0 C10.06058594 1.13179687 10.12117188 2.26359375 10.18359375 3.4296875 C10.26799917 4.91147145 10.35264717 6.3932416 10.4375 7.875 C10.47681641 8.62136719 10.51613281 9.36773437 10.55664062 10.13671875 C10.71573624 14.19986864 10.71573624 14.19986864 12 18 C13.65 18 15.3 18 17 18 C18.585869 14.828262 18.37866445 11.36486178 18.5625 7.875 C18.60568359 7.12089844 18.64886719 6.36679687 18.69335938 5.58984375 C18.7994832 3.72678112 18.90025001 1.86341476 19 0 C22.3 0 25.6 0 29 0 C29.08111739 3.2296738 29.14055592 6.45730014 29.1875 9.6875 C29.21263672 10.59951172 29.23777344 11.51152344 29.26367188 12.45117188 C29.33085851 18.60994658 28.57858494 21.99165091 24.5 26.75 C20.32818172 30.22651523 14.09688701 29.42598616 9 29 C5.71363596 27.56221573 3.29758238 25.75709885 1 23 C0.03911617 20.11734851 -0.11670941 18.32337729 -0.09765625 15.33203125 C-0.09443359 14.43935547 -0.09121094 13.54667969 -0.08789062 12.62695312 C-0.07951172 11.69818359 -0.07113281 10.76941406 -0.0625 9.8125 C-0.05798828 8.87212891 -0.05347656 7.93175781 -0.04882812 6.96289062 C-0.03704645 4.64189992 -0.01911114 2.32094193 0 0 Z " fill="#000000" transform="translate(52,28)"/>
<path d="M0 0 C3.2730552 1.35680677 5.50349857 3.50349857 8 6 C8 6.99 8 7.98 8 9 C5 11.1875 5 11.1875 2 13 C1.46375 12.67 0.9275 12.34 0.375 12 C-2.5391061 10.77300796 -4.86867708 10.85766714 -8 11 C-9.19838209 13.32854463 -9.19838209 13.32854463 -10 16 C-9.34 16.99 -8.68 17.98 -8 19 C-4.05273438 19.42905061 -1.38757921 19.08466413 2 17 C3.98 18.32 5.96 19.64 8 21 C7.66032174 24.17033042 7.00130809 24.99882607 4.5625 27.1875 C-0.4591318 30.73938591 -4.9642562 30.5994118 -11 30 C-14.76321841 28.75685424 -17.32138255 26.81434094 -19.875 23.75 C-22.02049152 18.50546516 -22.48497446 14.68314667 -20.9375 9.3125 C-15.94770117 0.78155362 -9.46486005 -1.00121933 0 0 Z " fill="#000000" transform="translate(172,27)"/>
<path d="M0 0 C1.54300781 -0.02513672 1.54300781 -0.02513672 3.1171875 -0.05078125 C6.4803662 0.35542085 8.3729883 1.38812281 11.125 3.3125 C10.00048273 6.2844385 8.90206209 8.64690687 7.125 11.3125 C1.375 9.4375 1.375 9.4375 -0.875 8.3125 C-0.875 8.9725 -0.875 9.6325 -0.875 10.3125 C-0.26011719 10.49425781 0.35476563 10.67601562 0.98828125 10.86328125 C2.20064453 11.24033203 2.20064453 11.24033203 3.4375 11.625 C4.23800781 11.86863281 5.03851563 12.11226562 5.86328125 12.36328125 C8.27203707 13.37420986 9.49803625 14.28761013 11.125 16.3125 C12.28964768 20.05601039 12.2926593 21.85364296 10.9375 25.5625 C9.00388789 28.49625631 8.31037917 29.10901186 5.125 30.3125 C-0.27825371 30.95968638 -5.95122928 31.46561805 -10.625 28.3125 C-11.3675 27.6525 -12.11 26.9925 -12.875 26.3125 C-12.33273019 22.51661134 -10.67372437 20.84038007 -7.875 18.3125 C-3.42 20.2925 -3.42 20.2925 1.125 22.3125 C1.125 21.6525 1.125 20.9925 1.125 20.3125 C0.073125 20.065 -0.97875 19.8175 -2.0625 19.5625 C-5.74436562 18.47959835 -8.22833354 17.19269585 -10.875 14.3125 C-12.02388518 10.36320721 -12.30629396 8.28291141 -10.625 4.5 C-7.40457617 0.47447021 -4.94486581 0.018497 0 0 Z " fill="#000000" transform="translate(281.875,26.6875)"/>
<path d="M0 0 C3.3 0 6.6 0 10 0 C10 2.31 10 4.62 10 7 C12.64 7 15.28 7 18 7 C18 9.97 18 12.94 18 16 C15.36 16 12.72 16 10 16 C10.33 19.3 10.66 22.6 11 26 C13.64 26.33 16.28 26.66 19 27 C19 29.97 19 32.94 19 36 C17.10489301 36.08160748 15.20875496 36.13946459 13.3125 36.1875 C11.72888672 36.23970703 11.72888672 36.23970703 10.11328125 36.29296875 C6.58163401 35.96063055 4.81744571 35.11678496 2 33 C-0.49118953 29.2632157 -0.2065226 27.25548181 -0.125 22.8125 C-0.10695313 21.54019531 -0.08890625 20.26789062 -0.0703125 18.95703125 C-0.04710938 17.98121094 -0.02390625 17.00539063 0 16 C-1.65 16 -3.3 16 -5 16 C-5 13.03 -5 10.06 -5 7 C-3.35 7 -1.7 7 0 7 C0 4.69 0 2.38 0 0 Z " fill="#000000" transform="translate(89,21)"/>
<path d="M0 0 C1 1 1 1 1.09765625 3.06640625 C1.08605469 3.89011719 1.07445312 4.71382812 1.0625 5.5625 C1.05347656 6.38878906 1.04445312 7.21507812 1.03515625 8.06640625 C1.02355469 8.70449219 1.01195312 9.34257813 1 10 C-0.670625 10.12375 -0.670625 10.12375 -2.375 10.25 C-5.95575822 10.57238204 -5.95575822 10.57238204 -7.1875 12.59375 C-8.27813131 15.82369656 -8.43613569 18.85044236 -8.625 22.25 C-8.69976562 23.51328125 -8.77453125 24.7765625 -8.8515625 26.078125 C-8.90054688 27.04234375 -8.94953125 28.0065625 -9 29 C-12.3 29 -15.6 29 -19 29 C-19 19.76 -19 10.52 -19 1 C-15.7 1 -12.4 1 -9 1 C-6.01787087 -0.49106457 -3.28390342 -0.11941467 0 0 Z " fill="#000000" transform="translate(131,27)"/>
<path d="M0 0 C3.3 0 6.6 0 10 0 C10 9.24 10 18.48 10 28 C6.7 28 3.4 28 0 28 C0 18.76 0 9.52 0 0 Z " fill="#000000" transform="translate(185,28)"/>
<path d="M0 0 C3.3 0 6.6 0 10 0 C10 9.24 10 18.48 10 28 C6.7 28 3.4 28 0 28 C0 18.76 0 9.52 0 0 Z " fill="#000000" transform="translate(136,28)"/>
<path d="M0 0 C3 2 3 2 3.875 4.875 C4 8 4 8 3 10.375 C1 12 1 12 -2.5 12.375 C-6 12 -6 12 -9 10 C-9.37331109 6.57798172 -9.63763183 4.09814371 -7.875 1.0625 C-5.14015561 -0.48724515 -3.0875593 -0.32162076 0 0 Z " fill="#000000" transform="translate(193,10)"/>
<path d="M0 0 C3 2 3 2 3.875 4.875 C4 8 4 8 3 10.375 C1 12 1 12 -2.5 12.375 C-6 12 -6 12 -9 10 C-9.37331109 6.57798172 -9.63763183 4.09814371 -7.875 1.0625 C-5.14015561 -0.48724515 -3.0875593 -0.32162076 0 0 Z " fill="#000000" transform="translate(144,10)"/>
</svg>
