<svg viewBox="0 0 396 73" data-background-color="#ffffff" preserveAspectRatio="xMidYMid meet" height="368" width="2000"
        xmlns="http://www.w3.org/2000/svg" xmlns:xlink="http://www.w3.org/1999/xlink">
        <g id="tight-bounds" transform="matrix(1,0,0,1,0.2400000000000091,-0.13303321033208704)">
                <svg viewBox="0 0 395.52 73.2660664206642" height="73.2660664206642" width="395.52">
                        <g><svg viewBox="0 0 395.52 73.2660664206642" height="73.2660664206642" width="395.52">
                                        <g><svg viewBox="0 0 395.52 73.2660664206642" height="73.2660664206642"
                                                        width="395.52">
                                                        <g id="textblocktransform"><svg
                                                                        viewBox="0 0 395.52 73.2660664206642"
                                                                        height="73.2660664206642" width="395.52"
                                                                        id="textblock">
                                                                        <g><svg viewBox="0 0 395.52 73.2660664206642"
                                                                                        height="73.2660664206642"
                                                                                        width="395.52">
                                                                                        <g
                                                                                                transform="matrix(1,0,0,1,0,0)">
                                                                                                <svg width="395.52"
                                                                                                        viewBox="1.5 -37.1 203.23 37.65"
                                                                                                        height="73.2660664206642"
                                                                                                        data-palette-color="#848484">
                                                                                                        <g class="wordmark-text-0"
                                                                                                                data-fill-palette-color="primary"
                                                                                                                id="text-0">
                                                                                                                <path d="M16.05 0.55L16.05 0.55Q9.5 0.55 5.5-3.85 1.5-8.25 1.5-15.5L1.5-15.5Q1.5-23.75 6.5-29.4 11.5-35.05 18.8-35.05L18.8-35.05Q21.7-35.05 24.18-34.52 26.65-34 27.7-33.45L27.7-33.45 28.7-32.9 25.8-25.95Q24.3-26.95 21.75-27.83 19.2-28.7 17.25-28.7L17.25-28.7Q13.2-28.7 10.75-25.85 8.3-23 8.3-18.3L8.3-18.3Q8.3-11.95 10.63-8.4 12.95-4.85 17.1-4.85L17.1-4.85Q19.8-4.85 22.2-5.6L22.2-5.6 22.2-13.35 15.75-13.35 16.25-18.4 28.25-18.4 27.8-10.25 28.15-1.6Q20.8 0.55 16.05 0.55ZM40.7 0L40.7 0Q38 0 36.32-1.78 34.65-3.55 34.65-6.45L34.65-6.45 34.95-12.2 34.4-24.2 41.1-25.45 40.45-10.25Q40.45-8.1 41.22-7.1 42-6.1 43.7-6.1 45.4-6.1 48.4-7.8L48.4-7.8 48.4-10.8 47.85-23.95 54.6-25.2 54-12.7 54.05-8.6Q54.05-5.4 55.7-2.15L55.7-2.15 50.5 0.15Q48.85-3.1 48.5-5.05L48.5-5.05Q44 0 40.7 0ZM59.25-24.2L62.15-24.2 62.15-29.65 68.9-30.95 68.25-24.2 74.3-24.2 73.75-20.1 68.05-20.1 67.8-9.65Q67.8-7.3 68.25-6.53 68.7-5.75 69.9-5.75 71.09-5.75 73.09-6.3L73.09-6.3 73.4-2.75Q70.09 0 67.59 0 65.09 0 63.5-1.83 61.9-3.65 61.9-6.6L61.9-6.6 62.2-12.2 62.15-20.1 58.7-20.1 59.25-24.2ZM77.39-24.15L77.39-24.15 83.44-25.45Q83.89-21.6 84.04-18.15L84.04-18.15Q88.59-25.2 92.59-25.2L92.59-25.2 92.04-17.4Q89.14-17.4 87.47-16.88 85.79-16.35 84.04-14.8L84.04-14.8 84.04-13 84.59-1.25 77.89 0 78.49-12.15Q78.29-18.85 77.39-24.15ZM95.74-24.2L102.44-25.45 101.84-13 102.39-1.25 95.69 0 96.29-12.15 95.74-24.2ZM95.39-32.77Q95.39-34.45 96.69-35.77 97.99-37.1 99.69-37.1 101.39-37.1 102.29-36.18 103.19-35.25 103.19-33.4 103.19-31.55 101.92-30.23 100.64-28.9 98.97-28.9 97.29-28.9 96.34-30 95.39-31.1 95.39-32.77ZM116.54-19.25Q114.34-19.25 113.14-17.68 111.94-16.1 111.94-12.85 111.94-9.6 113.16-7.63 114.39-5.65 116.74-5.65L116.74-5.65Q117.94-5.65 119.09-6.4 120.24-7.15 120.84-7.9L120.84-7.9 121.39-8.7 123.89-6.1Q123.74-5.85 123.51-5.4 123.29-4.95 122.41-3.8 121.54-2.65 120.56-1.78 119.59-0.9 118.04-0.18 116.49 0.55 114.79 0.55L114.79 0.55Q111.04 0.55 108.69-2.5 106.34-5.55 106.34-10.45L106.34-10.45Q106.34-16.55 109.89-21.15 113.44-25.75 118.19-25.75L118.19-25.75Q119.64-25.75 121.09-25.33 122.54-24.9 124.04-24L124.04-24 120.54-17.85Q118.74-19.25 116.54-19.25ZM127.19-24.2L133.89-25.45 133.29-13 133.84-1.25 127.14 0 127.74-12.15 127.19-24.2ZM126.84-32.77Q126.84-34.45 128.14-35.77 129.44-37.1 131.14-37.1 132.84-37.1 133.74-36.18 134.64-35.25 134.64-33.4 134.64-31.55 133.36-30.23 132.09-28.9 130.41-28.9 128.74-28.9 127.79-30 126.84-31.1 126.84-32.77ZM137.88-10.45Q137.88-16.85 141.33-21.3 144.78-25.75 149.41-25.75 154.03-25.75 156.61-22.75 159.18-19.75 159.18-14.8L159.18-14.8Q159.18-8.2 155.86-3.83 152.53 0.55 147.48 0.55L147.48 0.55Q143.33 0.55 140.61-2.58 137.88-5.7 137.88-10.45L137.88-10.45ZM153.58-12.2L153.58-12.2Q153.58-19.45 148.63-19.45L148.63-19.45Q143.48-19.45 143.48-12.65L143.48-12.65Q143.48-9.1 144.93-7.1 146.38-5.1 148.76-5.1 151.13-5.1 152.36-6.93 153.58-8.75 153.58-12.2ZM169.48 0L169.48 0Q166.78 0 165.11-1.78 163.43-3.55 163.43-6.45L163.43-6.45 163.73-12.2 163.18-24.2 169.88-25.45 169.23-10.25Q169.23-8.1 170.01-7.1 170.78-6.1 172.48-6.1 174.18-6.1 177.18-7.8L177.18-7.8 177.18-10.8 176.63-23.95 183.38-25.2 182.78-12.7 182.83-8.6Q182.83-5.4 184.48-2.15L184.48-2.15 179.28 0.15Q177.63-3.1 177.28-5.05L177.28-5.05Q172.78 0 169.48 0ZM196.53-4.65L196.53-4.65Q199.13-4.65 199.13-6.95L199.13-6.95Q199.13-7.75 198-8.45 196.88-9.15 195.25-9.85 193.63-10.55 192-11.43 190.38-12.3 189.25-13.85 188.13-15.4 188.13-17.4L188.13-17.4Q188.13-20.75 191.08-23.25 194.03-25.75 197.88-25.75L197.88-25.75Q199.68-25.75 201.4-25.33 203.13-24.9 204.73-24L204.73-24 201.38-17.9Q201.03-18.2 200.48-18.65 199.93-19.1 198.4-19.83 196.88-20.55 195.7-20.55 194.53-20.55 193.9-20.03 193.28-19.5 193.28-18.57 193.28-17.65 195-16.73 196.73-15.8 198.78-15.03 200.83-14.25 202.55-12.48 204.28-10.7 204.28-8.25L204.28-8.25Q204.28-4.75 201.4-2.1 198.53 0.55 194.78 0.55L194.78 0.55Q192.38 0.55 190.3-0.5 188.23-1.55 187.33-2.6L187.33-2.6 186.43-3.65 190.38-8.25Q190.68-7.85 191.23-7.25 191.78-6.65 193.4-5.65 195.03-4.65 196.53-4.65Z"
                                                                                                                        fill="#000000"
                                                                                                                        data-fill-palette-color="primary">
                                                                                                                </path>
                                                                                                        </g>
                                                                                                </svg>
                                                                                        </g>
                                                                                </svg></g>
                                                                </svg></g>
                                                </svg></g>
                                </svg></g>
                        <defs></defs>
                </svg>
                <rect width="395.52" height="73.2660664206642" fill="none" stroke="none" visibility="hidden">
                </rect>
        </g>
</svg>